<?xml version="1.0" encoding="UTF-8"?>
<!DOCTYPE svg PUBLIC "-//W3C//DTD SVG 1.1//EN" "http://www.w3.org/Graphics/SVG/1.1/DTD/svg11.dtd">
<!-- Creator: CorelDRAW X8 -->
<svg xmlns="http://www.w3.org/2000/svg" xml:space="preserve" width="0.666661in" height="0.666661in" version="1.1" style="shape-rendering:geometricPrecision; text-rendering:geometricPrecision; image-rendering:optimizeQuality; fill-rule:evenodd; clip-rule:evenodd"
viewBox="0 0 667 667"
 xmlns:xlink="http://www.w3.org/1999/xlink">
 <defs>
  <style type="text/css">
   <![CDATA[
    .str0 {stroke:#2B2A29;stroke-width:6.94488}
    .fil2 {fill:none}
    .fil0 {fill:url(#id0)}
    .fil1 {fill:url(#id1)}
   ]]>
  </style>
  <linearGradient id="id0" gradientUnits="userSpaceOnUse" x1="413.287" y1="149.374" x2="244.378" y2="414.276">
   <stop offset="0" style="stop-opacity:1; stop-color:#355C28"/>
   <stop offset="1" style="stop-opacity:1; stop-color:#6AB436"/>
  </linearGradient>
  <linearGradient id="id1" gradientUnits="userSpaceOnUse" x1="308.598" y1="198.835" x2="144.858" y2="218.441">
   <stop offset="0" style="stop-opacity:1; stop-color:#E53A24"/>
   <stop offset="0.411765" style="stop-opacity:1; stop-color:#DF8A16"/>
   <stop offset="1" style="stop-opacity:1; stop-color:#D9DA08"/>
  </linearGradient>
 </defs>
 <g id="Layer_x0020_1">
  <metadata id="CorelCorpID_0Corel-Layer"/>
  <path class="fil0 str0" d="M593 14l-32 118 -55 134c9,-44 -151,-105 -210,128 -27,107 -77,273 -92,259 -137,-123 -144,-444 -89,-498 60,-58 42,-70 217,-71 144,60 227,-25 261,-70z"/>
  <polygon class="fil1 str0" points="144,210 339,168 256,255 166,255 "/>
  <line class="fil2 str0" x1="128" y1="363" x2="248" y2= "372" />
  <line class="fil2 str0" x1="127" y1="402" x2="244" y2= "414" />
  <line class="fil2 str0" x1="133" y1="446" x2="235" y2= "457" />
  <line class="fil2 str0" x1="136" y1="317" x2="267" y2= "328" />
 </g>
</svg>
